<svg width="48" height="48" viewBox="0 0 48 48" fill="none" xmlns="http://www.w3.org/2000/svg">
<g clip-path="url(#clip0_6364_12669)">
<path d="M8.50012 0.599609H39.4999C44.2001 0.599609 48 4.39948 48 9.09974V38.8995C48 43.5997 44.2001 47.3996 39.4999 47.3996H8.50012C3.79987 47.3996 0 43.5997 0 38.8995V9.09974C0 4.39948 3.79987 0.599609 8.50012 0.599609Z" fill="#001E36"/>
<path d="M17.2009 12.5C16.6009 12.5 16.0009 12.5 15.381 12.5203C14.7608 12.5401 14.1807 12.5401 13.6407 12.5604C13.1007 12.5802 12.6008 12.5802 12.1208 12.6001C11.6607 12.62 11.3408 12.62 11.0007 12.62C10.8608 12.62 10.8008 12.6999 10.8008 12.8401V33.4201C10.8008 33.6001 10.8807 33.6804 11.0408 33.6804H14.9209C15.0608 33.6601 15.1609 33.5401 15.1407 33.4003V26.9803C15.5205 26.9803 15.8007 26.9803 16.0009 27.0001C16.2008 27.02 16.5207 27.02 17.0007 27.02C18.6409 27.02 20.1409 26.84 21.5007 26.3401C22.8008 25.8601 23.9209 25.0201 24.7208 23.9C25.5208 22.78 25.9208 21.36 25.9208 19.64C25.9208 18.74 25.761 17.8801 25.461 17.0401C25.1431 16.1843 24.6452 15.4068 24.0008 14.7601C23.2402 14.0212 22.3247 13.4609 21.3207 13.1199C20.2005 12.6999 18.8408 12.5 17.2009 12.5ZM17.6472 16.4394C18.3597 16.4529 19.0534 16.5774 19.7007 16.8399C20.2808 17.06 20.7608 17.4601 21.1009 17.9799C21.4199 18.5178 21.5795 19.1353 21.561 19.7604C21.561 20.6401 21.3608 21.3204 20.9408 21.8203C20.5005 22.3201 19.9407 22.7004 19.3009 22.8804C18.5607 23.1204 17.7807 23.24 17.0007 23.24H15.9405C15.7005 23.24 15.441 23.2201 15.1609 23.2003V16.4802C15.3008 16.46 15.5809 16.4401 15.981 16.4604C16.3609 16.4401 16.8207 16.4401 17.3408 16.4401C17.4433 16.4376 17.5454 16.4374 17.6472 16.4394ZM34.4209 17.4605C33.0008 17.4605 31.8207 17.6802 30.8809 18.1602C30.021 18.5604 29.2808 19.2001 28.7809 20C28.341 20.7403 28.1007 21.56 28.1007 22.4202C28.0836 23.1278 28.2416 23.8286 28.5608 24.4602C28.9348 25.1329 29.4542 25.7136 30.081 26.1601C30.9608 26.7619 31.9156 27.246 32.9209 27.6001C33.9008 27.98 34.5608 28.28 34.881 28.5399C35.2009 28.8001 35.361 29.06 35.361 29.3401C35.361 29.7001 35.1409 30.0403 34.821 30.1801C34.461 30.3601 33.921 30.4603 33.1609 30.4603C32.361 30.4603 31.5608 30.3601 30.8007 30.1603C29.9279 29.9653 29.0911 29.6347 28.3208 29.1804C28.2608 29.1403 28.2008 29.1204 28.1408 29.1605C28.0808 29.2003 28.0609 29.2801 28.0609 29.3401V32.8201C28.041 32.9802 28.1408 33.1201 28.281 33.2C28.9296 33.503 29.6156 33.7183 30.321 33.8401C31.221 34.0201 32.1207 34.1 33.0405 34.1C34.4805 34.1 35.6809 33.8803 36.6608 33.4603C37.5608 33.1003 38.3408 32.4804 38.9007 31.6801C39.425 30.8934 39.6971 29.9656 39.6807 29.0203C39.7004 28.3061 39.5424 27.5983 39.2209 26.9604C38.8407 26.2801 38.3007 25.7203 37.6407 25.3003C36.6751 24.6939 35.6413 24.2038 34.5608 23.84C34.0782 23.6403 33.6044 23.4201 33.1407 23.18C32.8808 23.0401 32.6408 22.8601 32.4608 22.64C32.3408 22.4799 32.2609 22.3003 32.2609 22.1203C32.2609 21.9403 32.3209 21.7404 32.4207 21.5803C32.5609 21.3804 32.7807 21.2401 33.0405 21.1801C33.4208 21.0804 33.8408 21.02 34.2405 21.0399C35.0007 21.0399 35.7405 21.14 36.4808 21.3001C37.161 21.44 37.8008 21.6601 38.4008 21.9804C38.4807 22.0201 38.5808 22.0201 38.7608 21.9804C38.792 21.9572 38.8174 21.927 38.8348 21.8922C38.8522 21.8574 38.8611 21.819 38.8609 21.7801V18.5203C38.8609 18.44 38.8407 18.3601 38.8208 18.2803C38.7807 18.2004 38.7008 18.1201 38.6209 18.1002C38.0693 17.8748 37.4913 17.7202 36.9008 17.6401C36.0796 17.5206 35.2508 17.4608 34.4209 17.4605Z" fill="#31A8FF"/>
</g>
<defs>
<clipPath id="clip0_6364_12669">
<rect width="48" height="48" fill="white"/>
</clipPath>
</defs>
</svg>
