<svg width="109" height="25" viewBox="0 0 109 25" fill="none" xmlns="http://www.w3.org/2000/svg">
<path fill-rule="evenodd" clip-rule="evenodd" d="M104.079 14.454C106.453 14.454 108.286 12.5193 108.31 10.2255C108.145 9.22376 107.794 7.37061 105.194 7.37061C102.351 7.37061 101.408 11.3444 99.0933 13.9057C98.9055 15.3627 97.528 16.6663 95.8054 16.8847C96.2283 17.3267 97.1657 17.5642 98.2852 17.5642C100.336 17.5642 102.818 16.9471 104.117 15.6652C102.384 15.6875 101.27 14.5743 101.16 13.0313C102.005 14.0553 102.96 14.454 104.079 14.454Z" fill="#12ABDB"/>
<path fill-rule="evenodd" clip-rule="evenodd" d="M85.8404 8.13158C85.8404 6.87004 85.764 6.02688 84.9387 6.02688C84.5623 6.02688 84.3783 6.10076 84.0491 6.21093C84.3414 10.4776 83.3779 14.2349 82.201 14.2349C80.658 14.2349 81.4285 5.09012 78.1585 5.09012C75.145 5.09012 74.712 12.39 74.3694 12.39C74.1357 12.39 74.1006 10.4732 74.1127 9.01231C74.2395 8.31053 74.3076 7.68262 74.3076 7.20501C74.3076 6.52488 74.0312 5.34931 72.4876 5.93709C72.5423 11.1558 71.4967 14.3113 70.3204 14.3113C68.5934 14.3113 68.5756 9.57844 68.5756 8.27423C68.5756 7.00059 68.6666 5.29836 66.7746 5.90461C66.4906 10.4579 65.2985 13.8948 64.5457 13.8948C63.4237 13.8948 63.6497 6.02752 61.2234 6.02752C59.0436 6.02752 58.3692 13.4783 57.9145 13.4783C57.1013 13.4783 58.1686 5.09012 55.0202 5.09012C53.3676 5.09012 52.7117 7.8915 52.0647 11.0253C51.9386 11.6328 51.8068 11.6507 51.7857 10.9661C51.7688 10.3808 51.7637 9.79522 51.7705 9.20972C52.5658 6.05936 51.5953 4.89589 50.1364 5.73522C50.6063 11.5488 47.9387 14.3909 45.8907 14.3909C45.1501 14.3909 44.5686 14.0763 44.133 13.579C46.5886 12.0735 47.6795 10.3452 47.6795 8.6576C47.6795 6.82737 46.6288 5.77407 44.8839 5.77407C42.4474 5.77407 41.0859 8.28187 41.0859 10.4133C41.0859 11.5609 41.2992 12.5352 41.6526 13.3389C40.8158 13.7382 40.0268 14.0833 39.2926 14.4183C39.2289 12.2251 38.9805 9.92169 38.792 7.79725C37.4961 7.43999 37.1172 8.06344 37.0172 9.21736C36.7879 11.8506 35.8123 13.4841 34.9501 13.4841C34.3005 13.4841 33.905 12.6944 33.8573 11.8557C33.6166 7.63486 37.0433 6.46056 38.8347 7.07255C39.2066 6.14215 38.7984 5.47158 37.1821 5.47158C35.2207 5.47158 33.7554 6.66243 32.6811 8.19081C31.9634 9.20972 31.1355 9.93251 30.0344 10.8069C30.0625 10.5553 30.0777 10.3038 30.0777 10.0567C30.0777 7.08019 28.4647 5.77407 26.9248 5.77407C25.6506 5.77407 24.8501 6.53825 24.3852 7.71001C24.2706 6.53507 24.0369 6.02752 23.3535 6.02752C23.0606 6.02752 22.6549 6.11031 22.2181 6.32173C22.4181 6.97766 22.4957 8.4328 22.4957 9.39058C22.4957 12.9695 21.4705 14.573 20.4834 14.573C19.3562 14.573 19.1766 10.328 19.0824 8.67606C18.906 8.60836 18.7186 8.57382 18.5296 8.57417C17.5101 8.57417 17.377 9.94461 17.1254 11.2042C16.8465 12.6002 16.0422 14.3559 14.8513 14.3559C14.1317 14.3559 13.6828 13.6617 13.6267 12.4136C13.5095 9.88348 15.6149 6.88468 18.9092 7.81763C19.3409 6.80954 18.6633 6.04217 17.2961 6.04217C14.8883 6.04217 12.8976 7.84437 12.0296 9.97709C11.1482 11.9321 9.60519 14.8042 6.46693 14.8042C4.25079 14.8042 2.55557 12.8721 2.55557 8.81616C2.55557 5.32001 4.75897 1.99898 7.11076 1.99898C8.75567 1.99898 9.13713 3.61651 8.99257 5.13597C9.84336 5.82055 11.2418 5.18437 11.2418 3.47514C11.2418 2.29702 10.2853 0.299943 7.198 0.299943C3.37643 0.299943 0 4.11069 0 9.11866C0 13.9661 2.46068 16.8318 5.9441 16.8318C8.14113 16.8318 10.2153 15.5773 11.6468 13.2644C12.0066 15.2895 13.3873 16.1422 14.4221 16.1422C16.0963 16.1422 17.1897 15.0589 17.7871 13.5904C18.1596 15.0615 18.9461 16.1479 20.2516 16.1479C21.1724 16.1479 21.8901 15.6824 22.4308 14.9341C22.2168 20.0433 21.9455 23.3007 24.9647 22.6588C24.4985 21.2068 24.3495 18.5621 24.3495 16.188C24.3495 9.69052 25.4213 7.55271 26.7644 7.55271C27.7374 7.55271 28.0527 8.79324 28.0527 10.1166C28.0527 10.8253 27.9851 11.6398 27.8043 12.3754C26.1543 13.4166 24.8361 14.2381 24.8361 15.2825C24.8361 16.1084 25.4487 16.1855 25.9792 16.1855C27.2464 16.1855 28.7716 14.9418 29.6148 12.5951C30.3522 12.1493 31.0909 11.6379 31.7984 10.9419C31.7749 11.18 31.7602 11.4195 31.7602 11.664C31.7602 13.9942 32.7811 15.4009 34.4088 15.4009C35.6843 15.4009 36.6415 14.4966 37.3165 13.1421C37.3592 13.9228 37.3853 14.6418 37.3974 15.3041C34.81 16.4994 31.9462 17.7158 31.9462 21.0909C31.9462 22.8371 33.2071 24.1521 34.8501 24.1521C38.4545 24.1521 39.276 20.3477 39.3104 15.9282C40.4834 15.4187 41.3578 15.0265 42.3665 14.5285C43.2288 15.6072 44.4005 16.1485 45.4761 16.1485C47.5108 16.1485 49.0379 15.0704 50.265 12.8848C50.4828 14.5482 50.9139 16.1485 51.7978 16.1485C53.4109 16.1485 53.737 7.71701 54.9367 7.71701C55.855 7.71701 55.1004 16.8401 57.5254 16.8401C59.6015 16.8401 59.9912 8.81171 61.0018 8.81171C61.7183 8.81171 61.7724 16.1498 64.0331 16.1498C65.145 16.1498 66.3511 14.8138 66.9561 12.0143C67.2395 13.8764 68.1807 16.1498 70.018 16.1498C71.0897 16.1498 72.0112 15.0653 72.7225 13.6235C72.9187 15.1073 73.339 16.1498 74.1509 16.1498C76.2633 16.1498 76.1926 7.73611 77.8649 7.73611C79.1691 7.73611 78.7654 16.1498 81.8705 16.1498C83.3479 16.1498 84.0484 14.8902 84.4649 13.3109C85.0361 15.6346 85.9595 16.1498 86.7186 16.1498C87.1994 16.1498 87.563 15.9804 88.0394 15.4124C85.6386 14.3705 85.8404 10.5802 85.8404 8.13158ZM35.001 22.5785C34.2553 22.5785 33.8611 21.871 33.8611 21.0693C33.8611 18.9123 35.4455 17.7667 37.398 16.7834C37.3089 21.5004 36.2129 22.5785 35.001 22.5785ZM44.6998 7.28843C45.4258 7.28843 45.8416 7.95518 45.7697 8.91424C45.685 10.0408 44.8654 11.3291 43.4408 12.3422C42.6957 10.2248 43.2491 7.28843 44.6998 7.28843ZM67.7044 4.09922C68.3966 4.07566 68.88 3.48151 68.8825 2.77463C68.8851 2.06776 68.4074 1.51309 67.7152 1.53793C67.023 1.56149 66.4588 2.15437 66.4556 2.86188C66.4524 3.56875 67.0115 4.12279 67.7044 4.09922ZM84.9126 4.45775C85.5424 4.43547 86.0563 3.86997 86.0589 3.19685C86.0621 2.52245 85.5532 1.99516 84.9221 2.01745C84.2911 2.04038 83.7784 2.60588 83.7752 3.279C83.7727 3.95275 84.2821 4.48068 84.9126 4.45775ZM108.306 10.0567C108.254 7.39032 106.985 5.14043 105.029 3.34459C103.544 1.98816 101.779 0.958417 99.9295 0.182768C99.7807 0.119875 99.631 0.0589475 99.4805 0L99.4799 0C97.202 2.72878 89.3143 4.76534 89.3143 10.4865C89.3143 12.7231 90.7268 14.8144 92.8009 15.6537C94.0032 16.1084 95.2062 16.1333 96.4098 15.7289C97.4796 15.3773 98.3597 14.7138 99.0914 13.905C101.408 11.3437 102.351 7.37122 105.193 7.37122C107.794 7.37122 108.144 9.22246 108.31 10.2248C108.31 10.2223 108.309 10.1522 108.306 10.0567Z" fill="#0070AD"/>
</svg>
